<?xml version="1.0" standalone="no"?>
<!DOCTYPE svg PUBLIC "-//W3C//DTD SVG 20010904//EN"
 "http://www.w3.org/TR/2001/REC-SVG-20010904/DTD/svg10.dtd">
<svg version="1.0" xmlns="http://www.w3.org/2000/svg"
 width="406.000000pt" height="277.000000pt" viewBox="0 0 406.000000 277.000000"
 preserveAspectRatio="xMidYMid meet">

<g transform="translate(0.000000,277.000000) scale(0.100000,-0.100000)"
fill="#000000" stroke="none">
<path d="M0 1385 l0 -1385 2030 0 2030 0 0 1385 0 1385 -2030 0 -2030 0 0
-1385z m896 1236 c106 -50 166 -165 147 -283 -12 -73 3 -107 68 -157 l43 -33
86 6 c133 11 247 -22 314 -89 58 -60 65 -60 173 -14 54 22 125 52 158 65 92
38 89 35 96 105 6 69 16 93 61 151 84 107 261 117 361 20 40 -39 77 -122 77
-175 0 -18 4 -36 8 -42 13 -18 76 -46 292 -131 118 -46 238 -93 265 -105 107
-45 110 -45 148 -12 90 79 231 107 318 63 115 -58 162 -128 163 -245 1 -38 -3
-79 -8 -90 -9 -20 -11 -29 -14 -52 -2 -15 -62 -76 -96 -98 -32 -21 -33 -51 -3
-96 18 -28 31 -35 68 -40 61 -9 101 -31 138 -76 53 -65 64 -138 31 -210 -51
-114 -167 -161 -278 -113 -28 12 -57 28 -63 36 -18 22 -58 16 -129 -19 l-65
-33 -3 -96 c-3 -91 -1 -98 20 -113 13 -9 47 -34 77 -55 30 -22 62 -40 72 -40
9 0 41 17 70 37 52 37 57 38 139 38 99 0 141 -16 203 -79 117 -120 121 -285 9
-404 -46 -49 -85 -69 -154 -80 -132 -21 -258 48 -313 170 -25 55 -27 69 -24
156 l4 95 -75 58 c-41 32 -79 58 -85 58 -5 0 -37 -13 -70 -29 -78 -38 -142
-40 -221 -5 -32 14 -66 23 -76 19 -10 -3 -45 -27 -76 -53 -31 -26 -76 -60 -99
-74 -52 -33 -66 -58 -57 -100 28 -129 -31 -260 -141 -311 -69 -33 -149 -36
-173 -6 -10 11 -33 22 -52 24 -51 6 -104 40 -136 89 -36 55 -46 173 -20 242
21 55 24 50 -116 192 -95 97 -105 104 -133 98 -91 -18 -142 -17 -190 4 -26 12
-53 21 -60 21 -7 0 -45 -21 -84 -47 l-71 -47 6 -96 c8 -113 -2 -155 -52 -217
-59 -72 -118 -98 -225 -97 -81 1 -139 25 -192 77 -71 70 -91 122 -83 217 9
113 3 129 -81 220 -76 82 -100 93 -142 70 -21 -11 -129 -14 -181 -6 -124 20
-231 99 -286 211 -27 56 -29 68 -29 170 1 137 21 189 101 265 128 121 307 152
467 81 69 -30 77 -31 105 -17 15 8 51 39 81 69 l54 55 7 109 c11 151 1 190
-61 248 -43 40 -55 46 -82 42 -94 -15 -227 44 -277 123 -72 114 -64 215 24
317 82 94 206 119 322 64z"/>
<path d="M688 2552 c-65 -37 -101 -92 -106 -162 -3 -48 1 -61 27 -103 39 -60
77 -77 173 -77 109 0 135 -11 196 -80 69 -78 86 -119 77 -185 -4 -27 -8 -93
-9 -146 -2 -107 -11 -127 -87 -189 -23 -19 -57 -48 -76 -63 -51 -44 -95 -46
-184 -6 -158 70 -304 43 -402 -76 -72 -88 -93 -211 -53 -311 13 -32 32 -63 43
-68 11 -5 25 -22 30 -37 7 -19 20 -29 43 -34 17 -4 57 -20 87 -36 66 -35 137
-38 200 -9 l43 19 60 -30 c33 -16 60 -35 60 -41 0 -6 27 -40 60 -74 81 -84 90
-109 77 -206 -11 -83 1 -138 43 -191 51 -64 188 -90 265 -50 78 41 110 99 102
189 -7 91 -35 135 -113 175 -56 28 -70 31 -117 26 -85 -10 -110 2 -214 108
-92 94 -93 96 -93 145 0 47 21 147 36 172 4 6 6 55 5 108 -2 121 9 150 75 191
27 17 66 47 87 65 42 39 68 42 162 19 33 -8 96 -14 140 -15 80 0 82 1 141 44
47 34 66 55 82 94 27 61 29 139 5 202 -19 52 -82 122 -129 145 -37 17 -156 20
-222 5 -53 -13 -97 4 -157 59 -22 21 -49 42 -59 48 -25 14 -36 76 -29 173 8
119 -12 166 -88 203 -69 35 -120 35 -181 -1z m729 -563 c63 -39 101 -159 74
-232 -5 -13 -25 -41 -45 -61 -62 -66 -156 -78 -247 -30 -36 18 -74 75 -89 133
-39 147 168 276 307 190z m-780 -501 c51 -15 120 -91 138 -150 20 -68 19 -86
-7 -155 -21 -58 -67 -111 -118 -137 -66 -34 -180 -29 -233 10 -18 13 -41 28
-52 33 -30 13 -41 30 -54 83 -33 135 11 249 116 302 69 34 131 39 210 14z"/>
<path d="M2411 2046 c-19 -20 -54 -45 -78 -56 -23 -11 -43 -26 -43 -33 0 -41
22 -295 26 -311 4 -10 36 -32 78 -52 45 -21 81 -46 99 -68 15 -20 33 -36 40
-36 6 0 136 41 287 91 184 60 281 97 293 111 10 13 17 37 17 65 0 43 -1 45
-47 64 -27 11 -68 29 -93 39 -25 11 -79 33 -120 50 -41 17 -95 39 -120 50 -76
32 -274 111 -290 116 -9 3 -30 -10 -49 -30z"/>
<path d="M1909 2026 c-149 -62 -243 -106 -250 -117 -3 -5 -5 -51 -4 -101 l2
-92 194 -98 c107 -53 201 -97 210 -97 9 -1 22 6 30 15 7 8 31 25 53 36 73 37
76 42 76 137 0 47 -3 123 -7 169 l-6 83 -66 30 c-36 16 -75 38 -86 48 -35 31
-39 31 -146 -13z"/>
<path d="M1565 1597 c-56 -58 -57 -60 -40 -101 18 -43 112 -245 123 -265 5 -8
42 -22 83 -31 41 -9 93 -27 116 -40 l42 -25 73 52 c59 41 73 56 71 75 -2 12
-4 56 -5 97 l-3 73 -190 98 c-105 53 -200 100 -210 104 -15 4 -31 -5 -60 -37z"/>
<path d="M3090 1579 c-30 -11 -113 -39 -185 -63 -262 -89 -330 -115 -342 -132
-14 -19 -18 -122 -5 -140 4 -6 23 -19 42 -29 19 -10 70 -45 114 -77 87 -66
110 -71 172 -40 23 12 73 28 112 37 38 9 76 24 84 33 17 21 89 182 122 276
l25 69 -26 34 c-39 50 -51 54 -113 32z"/>
<path d="M1095 1522 c-27 -3 -118 -69 -153 -111 -10 -12 -12 -35 -7 -89 6 -78
-7 -177 -32 -229 -8 -19 -12 -43 -9 -55 4 -13 38 -56 76 -97 l70 -75 107 -7
c102 -7 174 -26 188 -49 13 -21 65 -9 113 27 50 36 50 37 56 107 5 50 18 94
43 148 l35 77 -66 140 c-36 78 -68 152 -72 166 -7 28 -10 29 -86 15 -45 -9
-71 -7 -130 6 -40 9 -80 19 -88 23 -8 4 -28 5 -45 3z"/>
<path d="M3307 1423 c-12 -21 -32 -60 -43 -88 -81 -188 -103 -247 -98 -260 9
-22 78 -19 143 5 63 23 71 32 71 83 0 43 30 109 67 149 23 24 25 32 19 80 -4
29 -13 56 -19 60 -7 4 -36 8 -65 8 -50 0 -54 -2 -75 -37z"/>
<path d="M3529 1287 c-109 -73 -105 -209 8 -259 68 -30 117 -21 165 31 34 36
38 46 38 92 0 122 -118 198 -211 136z"/>
<path d="M2443 1135 c-29 -19 -56 -35 -61 -35 -31 0 -34 -31 -27 -231 l7 -201
27 -10 c14 -6 50 -22 79 -35 32 -15 62 -23 76 -19 12 3 67 37 122 76 l99 70 0
120 0 121 -30 23 c-66 50 -224 156 -232 156 -4 0 -32 -16 -60 -35z"/>
<path d="M2009 1112 l-64 -47 -7 -75 c-3 -41 -10 -90 -13 -108 -7 -32 -3 -38
96 -140 57 -59 110 -111 117 -116 9 -5 31 -1 58 9 58 22 64 46 64 266 l0 177
-81 41 c-45 22 -87 41 -94 41 -7 0 -41 -21 -76 -48z"/>
<path d="M1649 1107 c-41 -27 -69 -79 -69 -129 0 -146 186 -200 268 -78 32 48
28 137 -9 176 -54 58 -131 71 -190 31z"/>
<path d="M3578 644 c-53 -16 -113 -70 -134 -121 -46 -108 19 -244 134 -282 85
-28 192 23 237 112 28 56 31 99 13 161 -17 56 -84 120 -142 135 -53 13 -49 13
-108 -5z"/>
</g>
</svg>
